<?xml version="1.0" encoding="utf-8"?>
<!-- Generator: Adobe Illustrator 17.1.0, SVG Export Plug-In . SVG Version: 6.00 Build 0)  -->
<!DOCTYPE svg PUBLIC "-//W3C//DTD SVG 1.1//EN" "http://www.w3.org/Graphics/SVG/1.1/DTD/svg11.dtd">
<svg version="1.1" id="Camada_1" xmlns="http://www.w3.org/2000/svg" xmlns:xlink="http://www.w3.org/1999/xlink" x="0px" y="0px"
	 viewBox="0 0 960 560" enable-background="new 0 0 960 560" xml:space="preserve">
<g>
	<g>
		<path d="M480.2,255.2c0-2,1.6-3.7,3.5-3.7c1.9,0,3.5,1.6,3.5,3.7v2.6h2v-2.6c0-3.2-2.5-5.7-5.5-5.7c-3,0-5.5,2.6-5.5,5.7v2.6h2
			V255.2z M490.1,259.9h-12.8c-1.1,0-2.1,1-2.1,2.2v9.2c0,1.2,0.9,2.2,2.1,2.2h12.8c1.1,0,2.1-1,2.1-2.2V262
			C492.2,260.8,491.2,259.9,490.1,259.9z M483.7,269.8c-1.2,0-2.2-1-2.2-2.3c0-0.7,0.3-1.4,0.9-1.8c-0.2-0.3-0.4-0.7-0.4-1.1
			c0-1,0.8-1.8,1.7-1.8s1.7,0.8,1.7,1.8c0,0.4-0.1,0.8-0.4,1.1c0.5,0.4,0.9,1.1,0.9,1.8C485.8,268.8,484.9,269.8,483.7,269.8z"/>
	</g>
</g>
</svg>
